HIERARCHY
ROOT Hips
{
    OFFSET 0.000000 0.000000 0.000000
    CHANNELS 6 Xposition Yposition Zposition Zrotation Xrotation Yrotation
    JOINT Spine
    {
        OFFSET -0.000000 14.517291 0.000000
        CHANNELS 3 Zrotation Xrotation Yrotation
        JOINT Spine1
        {
            OFFSET -0.000000 37.558300 0.000000
            CHANNELS 3 Zrotation Xrotation Yrotation
            JOINT Neck
            {
                OFFSET -0.000000 37.404057 3.400369
                CHANNELS 3 Zrotation Xrotation Yrotation
                JOINT Head
                {
                    OFFSET -0.000000 24.785618 -3.540803
                    CHANNELS 3 Zrotation Xrotation Yrotation
                    End Site
                    {
                        OFFSET -0.000000 35.408028 0.000000
                    }
                }
            }
            JOINT LeftShoulder
            {
                OFFSET 6.992933 33.973492 -0.192664
                CHANNELS 3 Zrotation Xrotation Yrotation
                JOINT LeftArm
                {
                    OFFSET 21.527611 0.000000 0.000000
                    CHANNELS 3 Zrotation Xrotation Yrotation
                    JOINT LeftForeArm
                    {
                        OFFSET 56.353916 0.000000 0.000000
                        CHANNELS 3 Zrotation Xrotation Yrotation
                        JOINT LeftHand
                        {
                            OFFSET 47.774071 0.000000 0.000000
                            CHANNELS 3 Zrotation Xrotation Yrotation
                            End Site
                            {
                                OFFSET 26.556021 0.000000 0.000000
                            }
                        }
                    }
                }
            }
            JOINT RightShoulder
            {
                OFFSET -7.065357 33.973492 -0.192664
                CHANNELS 3 Zrotation Xrotation Yrotation
                JOINT RightArm
                {
                    OFFSET -21.527611 0.000000 0.000000
                    CHANNELS 3 Zrotation Xrotation Yrotation
                    JOINT RightForeArm
                    {
                        OFFSET -56.353916 0.000000 0.000000
                        CHANNELS 3 Zrotation Xrotation Yrotation
                        JOINT RightHand
                        {
                            OFFSET -47.774071 0.000000 0.000000
                            CHANNELS 3 Zrotation Xrotation Yrotation
                            End Site
                            {
                                OFFSET -26.556021 0.000000 0.000000
                            }
                        }
                    }
                }
            }
        }
    }
    JOINT LeftUpLeg
    {
        OFFSET 17.704014 0.000000 0.000000
        CHANNELS 3 Zrotation Xrotation Yrotation
        JOINT LeftLeg
        {
            OFFSET -0.000000 -81.181816 0.000000
            CHANNELS 3 Zrotation Xrotation Yrotation
            JOINT LeftFoot
            {
                OFFSET -0.000000 -62.821102 0.000000
                CHANNELS 3 Zrotation Xrotation Yrotation
                JOINT LeftToeBase
                {
                    OFFSET -0.000000 -11.507608 26.556021
                    CHANNELS 3 Zrotation Xrotation Yrotation
                    End Site
                    {
                        OFFSET -0.000000 0.000000 7.081605
                    }
                }
            }
        }
    }
    JOINT RightUpLeg
    {
        OFFSET -17.704014 0.000000 0.000000
        CHANNELS 3 Zrotation Xrotation Yrotation
        JOINT RightLeg
        {
            OFFSET -0.000000 -81.181816 0.000000
            CHANNELS 3 Zrotation Xrotation Yrotation
            JOINT RightFoot
            {
                OFFSET -0.000000 -62.821102 0.000000
                CHANNELS 3 Zrotation Xrotation Yrotation
                JOINT RightToeBase
                {
                    OFFSET -0.000000 -11.507608 26.556021
                    CHANNELS 3 Zrotation Xrotation Yrotation
                    End Site
                    {
                        OFFSET -0.000000 0.000000 7.081605
                    }
                }
            }
        }
    }
}
MOTION
Frames:    9
Frame Time:    0.008333
48.057648    148.667419    -37.857361    2.319378    -2.918701    -49.525616    1.431617    0.929066    -1.640997    -1.123106    1.608109    -0.528661    15.439380    -1.734424    13.390227    -10.070231    8.010059    10.674734    12.322267    -0.755120    -19.341171    -10.112539    -18.292360    -41.302429    5.926587    -36.902050    -28.119856    -22.305569    -27.876574    -44.327507    -8.148719    3.128497    -2.209498    34.937202    5.628022    75.173531    7.399546    -2.025536    106.676064    1.478833    -11.671430    19.407433    27.269850    -4.318034    3.833325    -13.898438    26.094320    -6.402998    -17.243765    -19.102381    41.318310    0.000000    0.000000    0.000000    -24.371618    -21.394018    -1.066547    8.402690    46.218388    -5.161042    9.252577    -19.229902    -13.664420    0.000000    0.000000    0.000000    
48.027203    148.653381    -37.869717    2.329156    -2.920403    -49.456409    1.422060    0.951328    -1.655408    -1.147817    1.580793    -0.533309    15.420903    -1.732180    13.375735    -10.049500    7.961829    10.660195    12.319700    -0.766985    -19.356323    -10.100196    -18.325190    -41.309963    5.935864    -36.894135    -28.190681    -22.334322    -27.847445    -44.347347    -8.149293    3.138548    -2.212918    34.938614    5.626930    75.190285    7.389330    -2.006664    106.699806    1.484281    -11.642744    19.421011    27.276161    -4.374781    3.823338    -13.892694    26.133482    -6.473596    -17.221138    -19.091232    41.354980    0.000000    0.000000    0.000000    -24.387676    -21.383242    -1.103034    8.409728    46.266495    -5.164465    9.255233    -19.260092    -13.700750    0.000000    0.000000    0.000000    
47.999203    148.638092    -37.887352    2.341800    -2.919470    -49.384525    1.411950    0.975048    -1.672403    -1.168619    1.553401    -0.538994    15.407840    -1.741717    13.354043    -10.050249    7.927397    10.635277    12.318450    -0.775306    -19.370586    -10.084122    -18.363098    -41.313980    5.927281    -36.906956    -28.275970    -22.356098    -27.845091    -44.376934    -8.159547    3.146165    -2.219971    34.944408    5.642879    75.214256    7.344491    -2.016234    106.718292    1.493355    -11.593907    19.435114    27.279919    -4.446097    3.835462    -13.872689    26.193617    -6.551945    -17.220106    -19.085033    41.366810    0.000000    0.000000    0.000000    -24.403889    -21.380386    -1.136253    8.431436    46.320007    -5.199567    9.286308    -19.291691    -13.735981    0.000000    0.000000    0.000000    
47.978336    148.620773    -37.911449    2.357510    -2.909414    -49.305004    1.412561    1.005242    -1.694579    -1.203388    1.523923    -0.546023    15.424002    -1.754735    13.338795    -10.088053    7.877113    10.607628    12.344150    -0.791144    -19.373333    -10.097882    -18.434284    -41.335865    5.910972    -36.892670    -28.352880    -22.398617    -27.806839    -44.407612    -8.152453    3.153069    -2.244939    34.924057    5.664104    75.255333    7.303500    -2.055395    106.749611    1.498175    -11.582708    19.419172    27.290688    -4.548914    3.840900    -13.854361    26.288054    -6.640099    -17.206882    -19.086569    41.389656    0.000000    0.000000    0.000000    -24.416855    -21.389656    -1.184924    8.375982    46.387432    -5.105252    9.373559    -19.311609    -13.742503    0.000000    0.000000    0.000000    
47.955227    148.599747    -37.938023    2.371855    -2.889310    -49.221153    1.416345    1.031506    -1.713329    -1.224574    1.488824    -0.552305    15.423306    -1.770735    13.313479    -10.112221    7.838817    10.573885    12.345441    -0.804572    -19.413589    -10.065468    -18.464483    -41.322666    5.941425    -36.915520    -28.407619    -22.441982    -27.800163    -44.437206    -8.149104    3.135741    -2.262496    34.909161    5.692539    75.266273    7.270995    -2.072376    106.773697    1.511938    -11.557485    19.449570    27.308546    -4.667242    3.847861    -13.831398    26.393688    -6.713048    -17.210361    -19.092951    41.406532    0.000000    0.000000    0.000000    -24.422626    -21.398247    -1.243441    8.383229    46.437290    -5.174537    9.396730    -19.329208    -13.719440    0.000000    0.000000    0.000000    
47.888535    148.557739    -37.956600    2.341234    -2.865237    -49.144211    1.426606    1.046565    -1.727557    -1.218673    1.497708    -0.556897    15.406021    -1.766835    13.278680    -10.129763    7.770432    10.533543    12.362148    -0.808804    -19.442678    -10.082313    -18.564835    -41.343857    5.948978    -36.880646    -28.436659    -22.514452    -27.716650    -44.506584    -8.141877    3.106893    -2.278044    34.881832    5.730537    75.268478    7.238554    -2.105575    106.795868    1.528361    -11.547698    19.458225    27.388474    -4.734920    3.844070    -13.861147    26.496218    -6.780134    -17.162186    -19.110260    41.418427    0.000000    0.000000    0.000000    -24.377710    -21.367701    -1.276984    8.385058    46.503094    -5.179109    9.387841    -19.409073    -13.756932    0.000000    0.000000    0.000000    
47.863693    148.537033    -37.977249    2.349267    -2.833593    -49.059734    1.453199    1.068620    -1.747709    -1.244131    1.469293    -0.563426    15.406601    -1.778522    13.256536    -10.176462    7.725577    10.501205    12.376458    -0.827651    -19.474804    -10.084886    -18.619730    -41.345356    5.959272    -36.888527    -28.488493    -22.496918    -27.727411    -44.505070    -8.140990    3.083606    -2.287363    34.894020    5.739658    75.270630    7.250520    -2.074925    106.821129    1.520349    -11.539021    19.457718    27.420343    -4.862620    3.827242    -13.859919    26.612886    -6.831903    -17.145039    -19.125330    41.457752    0.000000    0.000000    0.000000    -24.363842    -21.375769    -1.352904    8.348593    46.563007    -5.158380    9.408319    -19.440487    -13.780933    0.000000    0.000000    0.000000    
47.837784    148.515167    -37.993938    2.358083    -2.804318    -48.988365    1.472400    1.082675    -1.758923    -1.252151    1.454634    -0.567089    15.366061    -1.787351    13.224549    -10.181468    7.672907    10.468258    12.374409    -0.850122    -19.499687    -10.085570    -18.662331    -41.357403    6.014170    -36.885147    -28.507147    -22.524744    -27.695633    -44.525414    -8.142679    3.095282    -2.302629    34.908081    5.714079    75.312439    7.264264    -2.033108    106.818825    1.480737    -11.522882    19.437506    27.453960    -4.978582    3.812036    -13.867031    26.725498    -6.906197    -17.127110    -19.160854    41.520996    0.000000    0.000000    0.000000    -24.350550    -21.385588    -1.402714    8.331630    46.609974    -5.173349    9.438059    -19.465910    -13.791110    0.000000    0.000000    0.000000    
47.812443    148.492096    -38.002171    2.363747    -2.779236    -48.925682    1.492021    1.095268    -1.771212    -1.253163    1.452647    -0.571122    15.337739    -1.808504    13.200760    -10.218234    7.637383    10.439285    12.372251    -0.865605    -19.507757    -10.088669    -18.716890    -41.382351    6.053013    -36.887711    -28.518938    -22.492634    -27.701487    -44.524620    -8.153687    3.095784    -2.322447    34.909107    5.699299    75.359116    7.301252    -1.992842    106.821594    1.435026    -11.541145    19.421423    27.487139    -5.082856    3.791127    -13.885200    26.839613    -6.957034    -17.109100    -19.193655    41.562840    0.000000    0.000000    0.000000    -24.338343    -21.393936    -1.452727    8.297539    46.664688    -5.110425    9.423720    -19.495914    -13.836240    0.000000    0.000000    0.000000    
